PathFileType	4	(X/Y/Z)	s07c0101.trc
DataRate	CameraRate	NumFrames	NumMarkers	Units	OrigDataRate	OrigDataStartFrame	OrigNumFrames
200	200	4	48	mm	200	500	2000
Frame#	Time	racr			lacr			c7			jug			rlel			rdr			llel			ldr			s2			lic			ric			lasi			rasi			rpsi			lpsi			rgt			lgt			rth1			rth2			rth3			rth4			rlfc			rmfc			rsh1			rsh2			rsh3			rsh4			rlmal			rcal			rtoe			rmt5			lth1			lth2			lth4			lth3			llfc			lmfc			lsh1			lsh2			lsh3			lsh4			llmal			lcal			ltoe			lmt5			SBIKE			LBIKE			RBIKE			
		X1	Y1	Z1	X2	Y2	Z2	X3	Y3	Z3	X4	Y4	Z4	X5	Y5	Z5	X6	Y6	Z6	X7	Y7	Z7	X8	Y8	Z8	X9	Y9	Z9	X10	Y10	Z10	X11	Y11	Z11	X12	Y12	Z12	X13	Y13	Z13	X14	Y14	Z14	X15	Y15	Z15	X16	Y16	Z16	X17	Y17	Z17	X18	Y18	Z18	X19	Y19	Z19	X20	Y20	Z20	X21	Y21	Z21	X22	Y22	Z22	X23	Y23	Z23	X24	Y24	Z24	X25	Y25	Z25	X26	Y26	Z26	X27	Y27	Z27	X28	Y28	Z28	X29	Y29	Z29	X30	Y30	Z30	X31	Y31	Z31	X32	Y32	Z32	X33	Y33	Z33	X34	Y34	Z34	X35	Y35	Z35	X36	Y36	Z36	X37	Y37	Z37	X38	Y38	Z38	X39	Y39	Z39	X40	Y40	Z40	X41	Y41	Z41	X42	Y42	Z42	X43	Y43	Z43	X44	Y44	Z44	X45	Y45	Z45	X46	Y46	Z46	X47	Y47	Z47	X48	Y48	Z48	
500	2.5000	498.825967	1397.813749	-144.707788	461.875165	1407.423047	-380.295652	440.953540	1446.008803	-256.364254	401.003746	1299.059448	-257.698098	499.307473	1089.600968	37.260321	711.425316	914.148776	-62.910137	503.496503	1101.575420	-533.034116	712.999877	911.338244	-425.254475	-148.774337	1208.504002	-211.757138	-12.030985	1289.363304	-360.544853	38.094403	1238.400379	-78.636936	26.872372	1213.420358	-348.839275	52.683460	1191.847434	-98.098696	-115.122754	1244.564529	-158.572159	-120.221082	1267.245215	-264.047464	-7.654772	1110.088661	-41.833558	-49.173851	1131.884774	-401.959688	116.664583	1026.402621	-46.691243	194.860333	989.045383	-61.074990	246.859961	921.015223	-64.503754	214.663523	1016.214381	-77.282648	327.647280	809.528754	-98.857317	310.653087	794.024914	-203.201719	236.078461	701.383923	-71.857553	198.582029	622.205151	-83.927813	128.229288	570.386839	-77.049192	211.343108	612.410571	-122.103456	40.096474	469.630771	-72.391333	-29.248744	499.098851	-102.897045	113.410573	246.899414	-126.064658	45.573924	292.089469	-53.826739	43.220885	1040.495967	-415.212305	124.201195	1004.868916	-418.219899	146.779648	1032.957510	-411.760641	178.316014	934.253638	-415.656324	306.353832	814.230363	-391.457181	300.602070	791.077529	-296.911511	274.094110	668.339877	-414.451424	278.774580	584.115418	-396.007077	240.836591	502.418605	-403.686997	280.490305	586.703907	-353.831775	204.465537	369.484395	-402.661003	142.736743	316.697622	-371.912864	429.392979	359.880701	-360.623433	358.191107	317.092478	-427.038863	-263.732792	977.696394	-233.704457	-82.574816	79.063955	-434.721098	-82.499338	78.860830	-37.327056	
501	2.5050	497.668884	1398.965261	-142.924998	462.361930	1407.736227	-379.549907	440.634876	1447.251337	-255.154970	399.835052	1300.531775	-256.325646	499.397723	1089.736953	36.981553	711.487204	914.188714	-63.035257	504.612118	1102.395242	-533.070655	713.108466	911.337240	-425.366281	-147.437020	1207.354933	-213.891021	-11.447050	1288.127239	-362.541528	37.666466	1238.070564	-80.197558	27.634563	1212.143685	-350.771293	52.845884	1191.783539	-99.642186	-115.249746	1243.993073	-159.485009	-120.040136	1266.295015	-265.634770	-6.656788	1110.147270	-43.019083	-49.147540	1130.126410	-403.152995	118.657782	1028.106124	-46.811225	197.719643	993.027909	-61.736904	251.889461	926.695148	-64.649800	216.143896	1020.007537	-79.189998	334.684456	817.190227	-100.725240	317.141199	801.380392	-205.157080	243.045500	709.423437	-73.460076	204.902883	630.493958	-85.297654	134.126559	579.414379	-77.877596	217.159177	620.506717	-123.846121	44.724682	479.794003	-72.821963	-23.387704	510.809853	-103.387325	111.937920	254.292883	-127.384356	46.628940	302.172406	-53.921600	41.302650	1036.802620	-416.821987	121.416145	999.400374	-420.258375	144.646256	1026.999466	-413.581151	173.706538	927.555329	-417.473800	298.126229	804.412673	-392.571658	295.811330	780.815177	-299.269773	266.800691	658.418593	-416.427783	273.251232	574.270260	-398.308908	236.293442	492.073801	-404.648560	276.630882	576.787428	-356.154926	203.125634	358.397818	-402.536698	141.868784	305.729326	-371.631637	428.517930	349.018319	-360.594675	357.243407	306.229041	-427.002828	-263.704195	977.651083	-233.888395	-82.567026	79.019270	-434.754337	-82.507076	78.847694	-37.345096	
502	2.5100	496.376587	1400.355848	-140.857492	462.987795	1408.319497	-378.566952	440.246555	1448.744816	-253.863986	398.704486	1302.230306	-254.940363	499.430921	1090.018966	36.754443	711.597464	914.266137	-63.262338	505.464131	1103.257687	-532.451110	713.097168	911.374009	-425.624064	-146.639963	1206.694892	-215.805502	-10.650577	1287.146403	-364.600831	37.263474	1238.042571	-81.885090	28.456592	1210.994951	-352.423881	52.992770	1191.955161	-101.363127	-115.360897	1243.040571	-162.814819	-118.803812	1265.196777	-268.308841	-5.684135	1110.636593	-44.490412	-48.901101	1128.551361	-404.446592	120.269038	1030.271763	-47.696481	200.241645	997.290579	-62.847721	256.234295	932.373136	-65.290772	217.674717	1024.257505	-81.573333	341.537471	824.986026	-102.648881	324.139122	808.923746	-207.977434	249.962206	717.612039	-75.028338	210.997806	639.054794	-86.752844	139.984775	588.409302	-79.029396	222.988563	629.009346	-125.432509	49.376506	489.953005	-73.330150	-16.824137	522.443551	-103.363067	112.387390	262.881345	-127.601696	48.220953	312.383235	-54.132157	39.460851	1033.326790	-418.481503	118.704681	994.415626	-422.366633	142.667363	1021.325485	-415.534323	169.138507	921.153563	-419.439277	290.192431	794.870846	-394.499433	286.737923	772.292463	-301.505383	259.760968	648.532931	-418.442606	267.617782	564.543740	-400.260893	231.675614	481.816256	-405.624339	272.203855	567.147916	-358.242886	201.300732	347.802384	-402.413160	140.458125	295.143609	-371.461343	427.255432	338.244020	-360.565157	355.840283	295.414865	-426.736180	-263.681806	977.744604	-234.310847	-82.559517	78.962951	-434.783731	-82.499102	78.844320	-37.362654	
503	2.5150	494.877554	1402.001986	-138.396610	463.777674	1409.151302	-377.341808	439.846684	1450.546050	-252.280720	397.457528	1304.271476	-253.338278	499.426641	1090.334917	36.551773	711.736881	914.439529	-63.553904	506.537919	1104.528969	-532.265289	713.021754	911.477470	-426.029211	-145.804978	1206.314239	-217.832063	-9.600547	1286.386883	-366.768808	36.808317	1238.481240	-83.695000	29.477593	1210.167881	-354.342022	53.120710	1192.487498	-103.120625	-115.157312	1243.115186	-164.422799	-118.616506	1264.772655	-270.130644	-4.664099	1111.382322	-45.955898	-48.466945	1127.100013	-405.820690	121.856475	1033.043287	-49.036990	202.607348	1001.826878	-64.230328	259.821422	938.314000	-66.695164	219.226819	1029.059955	-83.248859	348.086172	832.848221	-104.573569	330.295110	817.234247	-209.356794	256.465126	725.991399	-76.654790	216.978345	647.667145	-88.262313	145.585698	597.571744	-80.050192	228.368629	637.721240	-126.754718	54.000357	500.108596	-73.916403	-12.122314	533.674769	-103.603608	113.789863	271.957261	-127.620973	50.419791	322.542637	-54.352439	37.686351	1029.989040	-420.139068	116.065611	989.411999	-424.307314	140.712723	1015.692683	-417.483415	164.625930	914.852912	-421.328056	282.202233	785.466168	-396.590352	279.277591	763.461205	-303.609001	253.576394	638.919559	-420.068623	262.503104	555.106267	-401.705680	227.540906	471.930902	-406.697181	267.094149	557.816984	-359.666112	199.020244	337.659603	-402.572522	138.466977	285.109323	-371.487000	425.456035	327.235639	-360.427729	353.927148	284.742261	-426.717668	-263.659715	977.855719	-234.761979	-82.557891	78.933701	-434.794235	-82.492746	78.856433	-37.375716	
